<svg id="SvgjsSvg1000" xmlns="http://www.w3.org/2000/svg" version="1.1" xmlns:xlink="http://www.w3.org/1999/xlink" xmlns:svgjs="http://svgjs.com/svgjs" width="37" height="26" viewBox="0 0 37 26"><title>Rectangle 22 copy 24</title><desc>Created with Avocode.</desc><defs id="SvgjsDefs1001"></defs><path id="SvgjsPath1007" d="M447.825 5675.88L457.09738 5685.12038L475.176 5667.110000000001C475.816 5666.47 476.854 5666.47 477.49399999999997 5667.110000000001L478.65299999999996 5668.26C479.29299999999995 5668.900000000001 479.29299999999995 5669.93 478.65299999999996 5670.570000000001L459.48474 5689.665900000001C459.4624 5689.691130000001 459.43916 5689.715840000001 459.41499999999996 5689.740000000001L458.256 5690.89C457.616 5691.530000000001 456.578 5691.530000000001 455.938 5690.89L454.779 5689.740000000001C454.75669 5689.71769 454.73516 5689.694910000001 454.71441 5689.671690000001L444.348 5679.350000000001C443.708 5678.710000000001 443.708 5677.670000000001 444.348 5677.040000000001L445.507 5675.880000000001C446.147 5675.240000000001 447.185 5675.240000000001 447.825 5675.880000000001Z " fill="#ffcc00" fill-opacity="1" transform="matrix(1,0,0,1,-443,-5666)"></path></svg>