<?xml version="1.0" encoding="utf-8"?>
<!-- Generator: Adobe Illustrator 19.1.0, SVG Export Plug-In . SVG Version: 6.00 Build 0)  -->
<svg version="1.1" xmlns="http://www.w3.org/2000/svg" xmlns:xlink="http://www.w3.org/1999/xlink" x="0px" y="0px"
	 viewBox="0 0 32.6 28.8" style="enable-background:new 0 0 32.6 28.8;" xml:space="preserve">
<style type="text/css">
	.st0{enable-background:new; fill:#4d4d4d;}
	.st1{fill-rule:evenodd;clip-rule:evenodd;}
</style>
<g id="Polygon_1_1_" class="st0">
	<g id="Polygon_1">
		<g>
			<path d="M16.3,2.2l14.1,24.4H2.2L16.3,2.2 M16.3,0.2c-0.7,0-1.4,0.4-1.7,1L0.5,25.6c-0.4,0.6-0.4,1.4,0,2c0.4,0.6,1,1,1.7,1h28.2
				c0.7,0,1.4-0.4,1.7-1c0.4-0.6,0.4-1.4,0-2L18.1,1.2C17.7,0.6,17,0.2,16.3,0.2L16.3,0.2z"/>
		</g>
	</g>
</g>
<g id="Ellipse_2_1_" class="st0">
	<g id="Ellipse_2">
		<g>
			<ellipse class="st1" cx="16.3" cy="23.9" rx="1.9" ry="1.9"/>
		</g>
	</g>
</g>
<g id="Rectangle_2_1_" class="st0">
	<g id="Rectangle_2">
		<g>
			<rect x="14.4" y="7.1" class="st1" width="3.8" height="13"/>
		</g>
	</g>
</g>
</svg>
